<?xml version="1.0" standalone="no"?>
<!DOCTYPE svg PUBLIC "-//W3C//DTD SVG 20010904//EN"
 "http://www.w3.org/TR/2001/REC-SVG-20010904/DTD/svg10.dtd">
<svg version="1.0" xmlns="http://www.w3.org/2000/svg"
 width="500.000000pt" height="500.000000pt" viewBox="0 0 500.000000 500.000000"
 preserveAspectRatio="xMidYMid meet">

<g transform="translate(0.000000,500.000000) scale(0.100000,-0.100000)"
fill="#000000" stroke="none">
<path d="M1796 4965 c-37 -13 -87 -36 -110 -51 -60 -40 -1524 -1507 -1583
-1588 -123 -167 -124 -307 -4 -751 27 -99 97 -358 155 -575 114 -423 125 -460
132 -460 3 0 49 23 103 50 106 54 183 84 249 95 23 4 42 12 42 18 0 7 -11 53
-25 102 -67 247 -218 823 -240 920 -56 244 -43 342 62 471 80 97 1133 1149
1218 1216 118 94 142 103 270 102 97 -1 132 -6 290 -47 235 -60 651 -170 788
-209 60 -17 112 -26 117 -22 4 5 20 54 34 108 15 55 46 142 71 193 30 64 40
95 32 98 -7 2 -147 41 -312 85 -165 44 -363 98 -440 120 -537 150 -708 175
-849 125z"/>
<path d="M3995 4803 c-228 -30 -451 -219 -527 -448 -33 -101 -33 -289 0 -390
118 -354 485 -541 834 -425 320 107 509 473 412 800 -88 300 -406 505 -719
463z"/>
<path d="M2032 4220 c-18 -4 -51 -20 -75 -36 -82 -56 -1047 -1022 -1120 -1122
-57 -78 -71 -120 -63 -186 8 -72 81 -370 176 -726 45 -168 85 -315 87 -327 7
-30 16 -35 103 -62 41 -13 116 -44 165 -69 78 -40 107 -64 216 -172 139 -138
177 -198 239 -377 l32 -92 67 -20 c77 -23 553 -151 784 -210 87 -23 182 -44
211 -47 73 -9 145 10 203 53 65 48 1043 1023 1100 1096 83 107 90 172 38 375
-77 308 -255 936 -269 949 -1 2 -25 7 -52 12 -74 14 -226 83 -302 138 -166
118 -307 307 -367 491 -10 31 -26 59 -40 68 -24 15 -440 130 -817 224 -193 49
-249 56 -316 40z"/>
<path d="M4535 3476 c-54 -36 -195 -99 -260 -115 -76 -21 -76 -11 5 -296 47
-163 197 -742 219 -847 39 -181 25 -273 -59 -390 -51 -73 -1177 -1202 -1261
-1266 -31 -23 -82 -51 -114 -62 -123 -42 -200 -28 -910 162 -165 44 -331 89
-370 99 -38 10 -75 19 -82 19 -6 0 -14 -19 -18 -42 -11 -62 -36 -131 -90 -241
-26 -54 -45 -103 -42 -110 5 -13 153 -56 547 -158 107 -28 251 -66 320 -84 69
-19 220 -58 335 -86 280 -69 362 -68 515 4 60 28 122 87 821 786 415 416 779
787 807 826 76 103 96 176 89 318 -4 95 -15 151 -69 362 -133 513 -312 1155
-322 1154 -6 0 -33 -15 -61 -33z"/>
<path d="M764 1520 c-135 -19 -298 -115 -389 -228 -61 -77 -112 -184 -131
-273 -19 -88 -14 -257 10 -332 140 -441 684 -603 1039 -309 106 88 193 232
222 369 60 281 -88 578 -353 712 -109 55 -266 79 -398 61z"/>
</g>
</svg>
